<svg aria-hidden="true" style="position: absolute; width: 0; height: 0; overflow: hidden;" version="1.1" xmlns="http://www.w3.org/2000/svg" xmlns:xlink="http://www.w3.org/1999/xlink">
<defs>
<symbol id="icon-logo_violet" viewBox="0 0 32 32">
<path fill="#ecedfd" style="fill: var(--color1, #ecedfd)" d="M24 0h-16c-4.418 0-8 3.582-8 8v16c0 4.418 3.582 8 8 8h16c4.418 0 8-3.582 8-8v-16c0-4.418-3.582-8-8-8z"></path>
<path fill="#5255bc" style="fill: var(--color2, #5255bc)" d="M13.331 23.027c0.245-1.272 0.453-2.61 0.747-3.949 0.145-0.701-0.032-0.999-0.815-0.946s-1.657 0.027-2.49 0c-0.833-0.027-0.982-0.446-0.502-1.044 2.363-2.918 4.753-5.8 7.134-8.674 0.267-0.326 0.575-0.558 1.014-0.312s0.349 0.549 0.276 0.915c-0.263 1.339-0.48 2.677-0.77 3.989-0.149 0.678 0.045 0.919 0.751 0.892 0.709-0.036 1.419-0.036 2.127 0 0.403 0 0.933-0.21 1.141 0.339s-0.231 0.781-0.453 1.107c-0.905 1.115-1.823 2.229-2.752 3.342-1.361 1.624-2.711 3.242-4.051 4.854-0.263 0.317-0.557 0.571-1.005 0.41s-0.353-0.54-0.353-0.924z"></path>
</symbol>
<symbol id="icon-user" viewBox="0 0 32 32">
<path d="M3.765 0c-2.079 0-3.765 1.686-3.765 3.765v0 24.471c0 1.758 1.204 3.234 2.833 3.649l0.026 0.006c0.479-6.319 5.369-11.36 11.575-12.070l0.060-0.006c-2.132-0.699-3.671-2.704-3.671-5.070 0-2.945 2.388-5.333 5.333-5.333s5.334 2.388 5.334 5.333c0 2.409-1.598 4.446-3.792 5.107 6.133 0.852 10.871 5.841 11.326 12.021l0.003 0.043c1.712-0.378 2.973-1.882 2.973-3.681v0-24.471c0-2.079-1.686-3.765-3.765-3.765v0h-24.471z"></path>
</symbol>
<symbol id="icon-logo" viewBox="0 0 32 32">
<path d="M24 0h-16c-4.418 0-8 3.582-8 8v16c0 4.418 3.582 8 8 8h16c4.418 0 8-3.582 8-8v-16c0-4.418-3.582-8-8-8z"></path>
<path fill="#fff" d="M13.331 23.027c0.245-1.272 0.453-2.61 0.747-3.949 0.145-0.701-0.032-0.999-0.815-0.946s-1.657 0.027-2.49 0c-0.833-0.027-0.982-0.446-0.502-1.044 2.363-2.918 4.753-5.8 7.134-8.674 0.267-0.326 0.575-0.558 1.014-0.312s0.349 0.549 0.276 0.915c-0.263 1.339-0.48 2.677-0.77 3.989-0.149 0.678 0.045 0.919 0.751 0.892 0.709-0.036 1.419-0.036 2.127 0 0.403 0 0.933-0.21 1.141 0.339s-0.231 0.781-0.453 1.107c-0.905 1.115-1.823 2.229-2.752 3.342-1.361 1.624-2.711 3.242-4.051 4.854-0.263 0.317-0.557 0.571-1.005 0.41s-0.353-0.54-0.353-0.924z"></path>
</symbol>
<symbol id="icon-arrow-circle-broken" viewBox="0 0 32 32">
<path stroke-linejoin="round" stroke-linecap="round" stroke-miterlimit="4" stroke-width="2.6" d="M4.45 9.333c2.305-3.985 6.614-6.667 11.55-6.667 7.364 0 13.333 5.97 13.333 13.333s-5.97 13.333-13.333 13.333c-4.935 0-9.244-2.681-11.55-6.667"></path>
<path stroke-linejoin="round" stroke-linecap="round" stroke-miterlimit="4" stroke-width="2.6" d="M16 21.333l5.333-5.333-5.333-5.333"></path>
<path stroke-linejoin="round" stroke-linecap="round" stroke-miterlimit="4" stroke-width="2.6" d="M2.667 16h18.667"></path>
</symbol>

<symbol id="logo-black" viewBox="0 0 104 32">
    <path fill="#1f1f1f" style="fill:var(--color1, #1f1f1f)" d="M24 0H8a8 8 0 0 0-8 8v16a8 8 0 0 0 8 8h16a8 8 0 0 0 8-8V8a8 8 0 0 0-8-8z"/>
    <path fill="#fff" style="fill:var(--color2, #fff)" d="M13.331 23.027c.245-1.272.453-2.61.747-3.949.145-.701-.032-.999-.815-.946s-1.657.027-2.49 0c-.833-.027-.982-.446-.502-1.044 2.363-2.918 4.753-5.8 7.134-8.674.267-.326.575-.558 1.014-.312s.349.549.276.915c-.263 1.339-.48 2.677-.77 3.989-.149.678.045.919.751.892a20.959 20.959 0 0 1 2.127 0c.403 0 .933-.21 1.141.339s-.231.781-.453 1.107a315.559 315.559 0 0 1-2.752 3.342 1579.8 1579.8 0 0 0-4.051 4.854c-.263.317-.557.571-1.005.41s-.353-.54-.353-.924z"/>
    <path fill="#161616" style="fill:var(--color3, #161616)" d="M48.704 10.832v1.808h-2.976V22h-2.24v-9.36h-2.976v-1.808h8.192zm.418 6.704c0-.896.176-1.691.528-2.384.363-.693.848-1.227 1.456-1.6a3.922 3.922 0 0 1 2.064-.56c.661 0 1.237.133 1.728.4.501.267.901.603 1.2 1.008v-1.264h2.256V22h-2.256v-1.296c-.288.416-.688.763-1.2 1.04-.501.267-1.083.4-1.744.4a3.807 3.807 0 0 1-2.048-.576c-.608-.384-1.093-.923-1.456-1.616-.352-.704-.528-1.509-.528-2.416zm6.976.032c0-.544-.107-1.008-.32-1.392a2.185 2.185 0 0 0-.864-.896c-.363-.213-.752-.32-1.168-.32s-.8.101-1.152.304c-.352.203-.64.501-.864.896-.213.384-.32.843-.32 1.376s.107 1.003.32 1.408c.224.395.512.699.864.912.363.213.747.32 1.152.32.416 0 .805-.101 1.168-.304a2.32 2.32 0 0 0 .864-.896c.213-.395.32-.864.32-1.408zm7.196 4.576c-.725 0-1.376-.128-1.952-.384-.576-.267-1.035-.624-1.376-1.072a2.725 2.725 0 0 1-.544-1.488h2.256c.043.341.208.624.496.848.299.224.667.336 1.104.336.427 0 .757-.085.992-.256.245-.171.368-.389.368-.656 0-.288-.149-.501-.448-.64-.288-.149-.752-.309-1.392-.48a12.242 12.242 0 0 1-1.632-.496 2.902 2.902 0 0 1-1.088-.784c-.299-.352-.448-.827-.448-1.424 0-.491.139-.939.416-1.344.288-.405.693-.725 1.216-.96.533-.235 1.157-.352 1.872-.352 1.056 0 1.899.267 2.528.8.629.523.976 1.232 1.04 2.128h-2.144a1.124 1.124 0 0 0-.448-.832c-.256-.213-.603-.32-1.04-.32-.405 0-.72.075-.944.224a.72.72 0 0 0-.32.624c0 .299.149.528.448.688.299.149.763.304 1.392.464.64.16 1.168.325 1.584.496s.773.437 1.072.8c.309.352.469.821.48 1.408 0 .512-.144.971-.432 1.376-.277.405-.683.725-1.216.96-.523.224-1.136.336-1.84.336zM73.229 22l-3.008-3.776V22h-2.24V10.16h2.24v6.736l2.976-3.76h2.912l-3.904 4.448L76.141 22h-2.912zm14.772-7.712c0 .597-.144 1.157-.432 1.68-.277.523-.72.944-1.328 1.264-.597.32-1.355.48-2.272.48h-1.872V22h-2.24V10.832h4.112c.864 0 1.6.149 2.208.448s1.061.709 1.36 1.232c.309.523.464 1.115.464 1.776zm-4.128 1.616c.619 0 1.077-.139 1.376-.416.299-.288.448-.688.448-1.2 0-1.088-.608-1.632-1.824-1.632h-1.776v3.248h1.776zm7.319-1.392a3.173 3.173 0 0 1 1.12-1.104c.469-.267 1.003-.4 1.6-.4v2.352h-.592c-.704 0-1.237.165-1.6.496-.352.331-.528.907-.528 1.728V22h-2.24v-8.864h2.24v1.376zm7.524 7.632c-.853 0-1.621-.187-2.304-.56a4.203 4.203 0 0 1-1.616-1.616c-.384-.693-.576-1.493-.576-2.4s.197-1.707.592-2.4a4.168 4.168 0 0 1 1.648-1.6c.693-.384 1.467-.576 2.32-.576s1.627.192 2.32.576a4.053 4.053 0 0 1 1.632 1.6c.406.693.608 1.493.608 2.4s-.208 1.707-.624 2.4a4.252 4.252 0 0 1-1.664 1.616c-.693.373-1.472.56-2.336.56zm0-1.952c.405 0 .784-.096 1.136-.288.363-.203.651-.501.864-.896.214-.395.32-.875.32-1.44 0-.843-.224-1.488-.672-1.936-.437-.459-.976-.688-1.616-.688s-1.179.229-1.616.688c-.427.448-.64 1.093-.64 1.936s.208 1.493.624 1.952c.427.448.96.672 1.6.672z"/>
</symbol>
<symbol id="logo-white" viewBox="0 0 104 32">
    <path fill="#1f1f1f" style="fill:var(--color1, #1f1f1f)" d="M24 0H8a8 8 0 0 0-8 8v16a8 8 0 0 0 8 8h16a8 8 0 0 0 8-8V8a8 8 0 0 0-8-8z"/>
    <path fill="#fff" style="fill:var(--color2, #fff)" d="M13.331 23.027c.245-1.272.453-2.61.747-3.949.145-.701-.032-.999-.815-.946s-1.657.027-2.49 0c-.833-.027-.982-.446-.502-1.044 2.363-2.918 4.753-5.8 7.134-8.674.267-.326.575-.558 1.014-.312s.349.549.276.915c-.263 1.339-.48 2.677-.77 3.989-.149.678.045.919.751.892a20.959 20.959 0 0 1 2.127 0c.403 0 .933-.21 1.141.339s-.231.781-.453 1.107a315.559 315.559 0 0 1-2.752 3.342 1579.8 1579.8 0 0 0-4.051 4.854c-.263.317-.557.571-1.005.41s-.353-.54-.353-.924zM48.704 10.832v1.808h-2.976V22h-2.24v-9.36h-2.976v-1.808h8.192zm.418 6.704c0-.896.176-1.691.528-2.384.363-.693.848-1.227 1.456-1.6a3.922 3.922 0 0 1 2.064-.56c.661 0 1.237.133 1.728.4.501.267.901.603 1.2 1.008v-1.264h2.256V22h-2.256v-1.296c-.288.416-.688.763-1.2 1.04-.501.267-1.083.4-1.744.4a3.807 3.807 0 0 1-2.048-.576c-.608-.384-1.093-.923-1.456-1.616-.352-.704-.528-1.509-.528-2.416zm6.976.032c0-.544-.107-1.008-.32-1.392a2.185 2.185 0 0 0-.864-.896c-.363-.213-.752-.32-1.168-.32s-.8.101-1.152.304c-.352.203-.64.501-.864.896-.213.384-.32.843-.32 1.376s.107 1.003.32 1.408c.224.395.512.699.864.912.363.213.747.32 1.152.32.416 0 .805-.101 1.168-.304a2.32 2.32 0 0 0 .864-.896c.213-.395.32-.864.32-1.408zm7.196 4.576c-.725 0-1.376-.128-1.952-.384-.576-.267-1.035-.624-1.376-1.072a2.725 2.725 0 0 1-.544-1.488h2.256c.043.341.208.624.496.848.299.224.667.336 1.104.336.427 0 .757-.085.992-.256.245-.171.368-.389.368-.656 0-.288-.149-.501-.448-.64-.288-.149-.752-.309-1.392-.48a12.242 12.242 0 0 1-1.632-.496 2.902 2.902 0 0 1-1.088-.784c-.299-.352-.448-.827-.448-1.424 0-.491.139-.939.416-1.344.288-.405.693-.725 1.216-.96.533-.235 1.157-.352 1.872-.352 1.056 0 1.899.267 2.528.8.629.523.976 1.232 1.04 2.128h-2.144a1.124 1.124 0 0 0-.448-.832c-.256-.213-.603-.32-1.04-.32-.405 0-.72.075-.944.224a.72.72 0 0 0-.32.624c0 .299.149.528.448.688.299.149.763.304 1.392.464.64.16 1.168.325 1.584.496s.773.437 1.072.8c.309.352.469.821.48 1.408 0 .512-.144.971-.432 1.376-.277.405-.683.725-1.216.96-.523.224-1.136.336-1.84.336zM73.229 22l-3.008-3.776V22h-2.24V10.16h2.24v6.736l2.976-3.76h2.912l-3.904 4.448L76.141 22h-2.912zm14.772-7.712c0 .597-.144 1.157-.432 1.68-.277.523-.72.944-1.328 1.264-.597.32-1.355.48-2.272.48h-1.872V22h-2.24V10.832h4.112c.864 0 1.6.149 2.208.448s1.061.709 1.36 1.232c.309.523.464 1.115.464 1.776zm-4.128 1.616c.619 0 1.077-.139 1.376-.416.299-.288.448-.688.448-1.2 0-1.088-.608-1.632-1.824-1.632h-1.776v3.248h1.776zm7.319-1.392a3.173 3.173 0 0 1 1.12-1.104c.469-.267 1.003-.4 1.6-.4v2.352h-.592c-.704 0-1.237.165-1.6.496-.352.331-.528.907-.528 1.728V22h-2.24v-8.864h2.24v1.376zm7.524 7.632c-.853 0-1.621-.187-2.304-.56a4.203 4.203 0 0 1-1.616-1.616c-.384-.693-.576-1.493-.576-2.4s.197-1.707.592-2.4a4.168 4.168 0 0 1 1.648-1.6c.693-.384 1.467-.576 2.32-.576s1.627.192 2.32.576a4.053 4.053 0 0 1 1.632 1.6c.406.693.608 1.493.608 2.4s-.208 1.707-.624 2.4a4.252 4.252 0 0 1-1.664 1.616c-.693.373-1.472.56-2.336.56zm0-1.952c.405 0 .784-.096 1.136-.288.363-.203.651-.501.864-.896.214-.395.32-.875.32-1.44 0-.843-.224-1.488-.672-1.936-.437-.459-.976-.688-1.616-.688s-1.179.229-1.616.688c-.427.448-.64 1.093-.64 1.936s.208 1.493.624 1.952c.427.448.96.672 1.6.672z"/>
</symbol>
<symbol id="logo-violet" viewBox="0 0 104 32">
    <path fill="#ecedfd" style="fill:var(--color4, #ecedfd)" d="M24 0H8a8 8 0 0 0-8 8v16a8 8 0 0 0 8 8h16a8 8 0 0 0 8-8V8a8 8 0 0 0-8-8z"/>
    <path fill="#5255bc" style="fill:var(--color5, #5255bc)" d="M13.331 23.027c.245-1.272.453-2.61.747-3.949.145-.701-.032-.999-.815-.946s-1.657.027-2.49 0c-.833-.027-.982-.446-.502-1.044 2.363-2.918 4.753-5.8 7.134-8.674.267-.326.575-.558 1.014-.312s.349.549.276.915c-.263 1.339-.48 2.677-.77 3.989-.149.678.045.919.751.892a20.959 20.959 0 0 1 2.127 0c.403 0 .933-.21 1.141.339s-.231.781-.453 1.107a315.559 315.559 0 0 1-2.752 3.342 1579.8 1579.8 0 0 0-4.051 4.854c-.263.317-.557.571-1.005.41s-.353-.54-.353-.924z"/>
    <path fill="#fff" style="fill:var(--color2, #fff)" d="M48.704 10.832v1.808h-2.976V22h-2.24v-9.36h-2.976v-1.808h8.192zm.418 6.704c0-.896.176-1.691.528-2.384.363-.693.848-1.227 1.456-1.6a3.922 3.922 0 0 1 2.064-.56c.661 0 1.237.133 1.728.4.501.267.901.603 1.2 1.008v-1.264h2.256V22h-2.256v-1.296c-.288.416-.688.763-1.2 1.04-.501.267-1.083.4-1.744.4a3.807 3.807 0 0 1-2.048-.576c-.608-.384-1.093-.923-1.456-1.616-.352-.704-.528-1.509-.528-2.416zm6.976.032c0-.544-.107-1.008-.32-1.392a2.185 2.185 0 0 0-.864-.896c-.363-.213-.752-.32-1.168-.32s-.8.101-1.152.304c-.352.203-.64.501-.864.896-.213.384-.32.843-.32 1.376s.107 1.003.32 1.408c.224.395.512.699.864.912.363.213.747.32 1.152.32.416 0 .805-.101 1.168-.304a2.32 2.32 0 0 0 .864-.896c.213-.395.32-.864.32-1.408zm7.196 4.576c-.725 0-1.376-.128-1.952-.384-.576-.267-1.035-.624-1.376-1.072a2.725 2.725 0 0 1-.544-1.488h2.256c.043.341.208.624.496.848.299.224.667.336 1.104.336.427 0 .757-.085.992-.256.245-.171.368-.389.368-.656 0-.288-.149-.501-.448-.64-.288-.149-.752-.309-1.392-.48a12.242 12.242 0 0 1-1.632-.496 2.902 2.902 0 0 1-1.088-.784c-.299-.352-.448-.827-.448-1.424 0-.491.139-.939.416-1.344.288-.405.693-.725 1.216-.96.533-.235 1.157-.352 1.872-.352 1.056 0 1.899.267 2.528.8.629.523.976 1.232 1.04 2.128h-2.144a1.124 1.124 0 0 0-.448-.832c-.256-.213-.603-.32-1.04-.32-.405 0-.72.075-.944.224a.72.72 0 0 0-.32.624c0 .299.149.528.448.688.299.149.763.304 1.392.464.64.16 1.168.325 1.584.496s.773.437 1.072.8c.309.352.469.821.48 1.408 0 .512-.144.971-.432 1.376-.277.405-.683.725-1.216.96-.523.224-1.136.336-1.84.336zM73.229 22l-3.008-3.776V22h-2.24V10.16h2.24v6.736l2.976-3.76h2.912l-3.904 4.448L76.141 22h-2.912zm14.772-7.712c0 .597-.144 1.157-.432 1.68-.277.523-.72.944-1.328 1.264-.597.32-1.355.48-2.272.48h-1.872V22h-2.24V10.832h4.112c.864 0 1.6.149 2.208.448s1.061.709 1.36 1.232c.309.523.464 1.115.464 1.776zm-4.128 1.616c.619 0 1.077-.139 1.376-.416.299-.288.448-.688.448-1.2 0-1.088-.608-1.632-1.824-1.632h-1.776v3.248h1.776zm7.319-1.392a3.173 3.173 0 0 1 1.12-1.104c.469-.267 1.003-.4 1.6-.4v2.352h-.592c-.704 0-1.237.165-1.6.496-.352.331-.528.907-.528 1.728V22h-2.24v-8.864h2.24v1.376zm7.524 7.632c-.853 0-1.621-.187-2.304-.56a4.203 4.203 0 0 1-1.616-1.616c-.384-.693-.576-1.493-.576-2.4s.197-1.707.592-2.4a4.168 4.168 0 0 1 1.648-1.6c.693-.384 1.467-.576 2.32-.576s1.627.192 2.32.576a4.053 4.053 0 0 1 1.632 1.6c.406.693.608 1.493.608 2.4s-.208 1.707-.624 2.4a4.252 4.252 0 0 1-1.664 1.616c-.693.373-1.472.56-2.336.56zm0-1.952c.405 0 .784-.096 1.136-.288.363-.203.651-.501.864-.896.214-.395.32-.875.32-1.44 0-.843-.224-1.488-.672-1.936-.437-.459-.976-.688-1.616-.688s-1.179.229-1.616.688c-.427.448-.64 1.093-.64 1.936s.208 1.493.624 1.952c.427.448.96.672 1.6.672z"/>
</symbol>

<symbol id="icon-bell" viewBox="0 0 32 32">
<path stroke-linejoin="round" stroke-linecap="round" stroke-miterlimit="4" stroke-width="3" d="M12.472 28c0.94 0.83 2.175 1.333 3.528 1.333s2.588-0.504 3.528-1.333M24 10.667c0-2.122-0.843-4.157-2.343-5.657s-3.535-2.343-5.657-2.343-4.157 0.843-5.657 2.343c-1.5 1.5-2.343 3.535-2.343 5.657 0 4.12-1.039 6.941-2.2 8.807-0.979 1.574-1.469 2.361-1.451 2.58 0.020 0.243 0.071 0.336 0.267 0.481 0.177 0.131 0.974 0.131 2.569 0.131h17.63c1.595 0 2.393 0 2.57-0.131 0.196-0.145 0.247-0.238 0.267-0.481 0.018-0.22-0.472-1.006-1.451-2.58-1.161-1.866-2.2-4.687-2.2-8.807z"></path>
</symbol>
<symbol id="icon-burger_menu" viewBox="0 0 32 32">
<path  stroke-linejoin="round" stroke-linecap="round" stroke-miterlimit="4" stroke-width="2.5" d="M4 16h24"></path>
<path  stroke-linejoin="round" stroke-linecap="round" stroke-miterlimit="4" stroke-width="2.5" d="M4 8h24"></path>
<path  stroke-linejoin="round" stroke-linecap="round" stroke-miterlimit="4" stroke-width="2.5" d="M4 24h24"></path>
</symbol>
<symbol id="icon-eye" viewBox="0 0 32 32">
<path stroke-linejoin="round" stroke-linecap="round" stroke-miterlimit="4" stroke-width="2.3111" d="M1.333 16c0 0 5.333-10.667 14.667-10.667s14.667 10.667 14.667 10.667c0 0-5.333 10.667-14.667 10.667s-14.667-10.667-14.667-10.667z"></path>
<path stroke-linejoin="round" stroke-linecap="round" stroke-miterlimit="4" stroke-width="2.3111" d="M16 20c2.209 0 4-1.791 4-4s-1.791-4-4-4c-2.209 0-4 1.791-4 4s1.791 4 4 4z"></path>
</symbol>
<symbol id="icon-filter" viewBox="0 0 32 32">
<path stroke-linejoin="round" stroke-linecap="round" stroke-miterlimit="4" stroke-width="3" d="M29.333 4h-26.667l10.667 12.613v8.72l5.333 2.667v-11.387l10.667-12.613z"></path>
</symbol>
<symbol id="icon-help_circle" viewBox="0 0 32 32">
<path stroke-linejoin="round" stroke-linecap="round" stroke-miterlimit="4" stroke-width="2.88" d="M16 29.333c7.364 0 13.333-5.97 13.333-13.333s-5.969-13.333-13.333-13.333-13.333 5.97-13.333 13.333c0 7.364 5.97 13.333 13.333 13.333z"></path>
<path stroke-linejoin="round" stroke-linecap="round" stroke-miterlimit="4" stroke-width="2.88" d="M12.12 12c0.313-0.891 0.932-1.643 1.747-2.121s1.772-0.654 2.703-0.494c0.931 0.16 1.776 0.644 2.384 1.366s0.941 1.637 0.94 2.582c0 2.667-4 4-4 4"></path>
<path stroke-linejoin="round" stroke-linecap="round" stroke-miterlimit="4" stroke-width="2.88" d="M16 22.667h0.020"></path>
</symbol>
<symbol id="icon-pencil" viewBox="0 0 32 32">
<path stroke-linejoin="round" stroke-linecap="round" stroke-miterlimit="4" stroke-width="2.6" d="M3.333 28.667l7.399-2.846c0.473-0.182 0.71-0.273 0.931-0.392 0.197-0.106 0.384-0.227 0.56-0.364 0.198-0.154 0.378-0.333 0.736-0.692l15.040-15.040c1.473-1.473 1.473-3.861 0-5.333s-3.861-1.473-5.333 0l-15.040 15.040c-0.359 0.359-0.538 0.538-0.692 0.736-0.137 0.176-0.259 0.364-0.364 0.56-0.119 0.221-0.21 0.458-0.392 0.931l-2.846 7.399zM3.333 28.667l2.744-7.135c0.196-0.511 0.295-0.766 0.463-0.883 0.147-0.102 0.329-0.141 0.505-0.107 0.201 0.038 0.395 0.232 0.782 0.619l3.012 3.012c0.387 0.387 0.58 0.58 0.619 0.782 0.034 0.176-0.005 0.358-0.107 0.505-0.117 0.168-0.372 0.267-0.883 0.463l-7.135 2.744z"></path>
</symbol>
<symbol id="icon-plus" viewBox="0 0 32 32">
<path stroke-linejoin="round" stroke-linecap="round" stroke-miterlimit="4" stroke-width="2.2857" d="M16 6.666v18.667"></path>
<path stroke-linejoin="round" stroke-linecap="round" stroke-miterlimit="4" stroke-width="2.2857" d="M6.667 16h18.667"></path>
</symbol>
<symbol id="icon-project_colors" viewBox="0 0 32 32">
<path stroke-linejoin="round" stroke-linecap="round" stroke-miterlimit="4" stroke-width="2.6667" d="M16 27.296c1.415 1.267 3.284 2.037 5.333 2.037 4.418 0 8-3.582 8-8 0-3.689-2.497-6.795-5.893-7.72M8.56 13.614c-3.396 0.925-5.894 4.031-5.894 7.72 0 4.418 3.582 8 8 8s8-3.582 8-8c0-1.041-0.199-2.035-0.56-2.947M24 10.667c0 4.418-3.582 8-8 8s-8-3.582-8-8 3.582-8 8-8c4.418 0 8 3.582 8 8z"></path>
</symbol>
<symbol id="icon-project_container" viewBox="0 0 32 32">
<path stroke-linejoin="round" stroke-linecap="round" stroke-miterlimit="4" stroke-width="2.6667" d="M27.333 9.704l-11.333 6.296M16 16l-11.333-6.296M16 16l0 12.667M28 21.411v-10.823c0-0.457 0-0.685-0.067-0.889-0.060-0.18-0.157-0.346-0.285-0.485-0.145-0.158-0.345-0.269-0.744-0.491l-9.867-5.481c-0.378-0.21-0.567-0.315-0.767-0.356-0.177-0.036-0.36-0.036-0.537 0-0.2 0.041-0.389 0.146-0.767 0.356l-9.867 5.481c-0.399 0.222-0.599 0.333-0.744 0.491-0.129 0.14-0.226 0.305-0.286 0.485-0.067 0.204-0.067 0.432-0.067 0.889v10.823c0 0.457 0 0.685 0.067 0.889 0.060 0.18 0.157 0.346 0.286 0.485 0.145 0.158 0.345 0.269 0.744 0.491l9.867 5.482c0.378 0.21 0.567 0.315 0.767 0.356 0.177 0.036 0.36 0.036 0.537 0 0.2-0.041 0.389-0.146 0.767-0.356l9.867-5.482c0.399-0.222 0.599-0.333 0.744-0.491 0.129-0.14 0.226-0.305 0.285-0.485 0.067-0.204 0.067-0.432 0.067-0.889z"></path>
</symbol>
<symbol id="icon-project_hexagon" viewBox="0 0 32 32">
<path stroke-linejoin="round" stroke-linecap="round" stroke-miterlimit="4" stroke-width="2.6667" d="M14.964 3.242c0.378-0.21 0.567-0.315 0.767-0.356 0.177-0.036 0.36-0.036 0.537 0 0.2 0.041 0.389 0.146 0.767 0.356l9.867 5.482c0.399 0.222 0.599 0.333 0.744 0.491 0.129 0.14 0.226 0.305 0.285 0.485 0.067 0.204 0.067 0.432 0.067 0.889v10.823c0 0.457 0 0.685-0.067 0.889-0.060 0.18-0.157 0.346-0.285 0.485-0.145 0.158-0.345 0.269-0.744 0.491l-9.867 5.482c-0.378 0.21-0.567 0.315-0.767 0.356-0.177 0.036-0.36 0.036-0.537 0-0.2-0.041-0.389-0.146-0.767-0.356l-9.867-5.482c-0.399-0.222-0.599-0.333-0.744-0.491-0.129-0.14-0.226-0.305-0.286-0.485-0.067-0.204-0.067-0.432-0.067-0.889v-10.823c0-0.457 0-0.685 0.067-0.889 0.060-0.18 0.157-0.346 0.286-0.485 0.145-0.158 0.345-0.269 0.744-0.491l9.867-5.481z"></path>
</symbol>
<symbol id="icon-project_lightning" viewBox="0 0 32 32">
<path stroke-linejoin="round" stroke-linecap="round" stroke-miterlimit="4" stroke-width="2.6667" d="M18.999 2.667h-7.674c-0.239 0-0.359 0-0.465 0.036-0.093 0.032-0.178 0.085-0.249 0.154-0.080 0.078-0.133 0.185-0.24 0.399l-5.6 11.2c-0.256 0.511-0.383 0.767-0.353 0.974 0.027 0.181 0.127 0.344 0.277 0.449 0.172 0.12 0.458 0.12 1.029 0.12h8.274l-4 13.333 16.258-16.86c0.548-0.569 0.823-0.853 0.839-1.097 0.014-0.211-0.073-0.417-0.235-0.553-0.186-0.157-0.581-0.157-1.372-0.157h-9.49l3-8z"></path>
</symbol>
<symbol id="icon-project_loading" viewBox="0 0 32 32">
<path stroke-linejoin="round" stroke-linecap="round" stroke-miterlimit="4" stroke-width="2.6667" d="M4.454 22.666c-1.67-2.893-0.821-6.58 1.944-8.453l0.003-0.003c2.221-1.501 5.143-1.45 7.312 0.126l4.576 3.327c2.167 1.576 5.090 1.627 7.312 0.126l0.003-0.003c2.766-1.872 3.616-5.563 1.943-8.453M22.669 27.546c-2.893 1.669-6.58 0.821-8.453-1.944l-0.003-0.003c-1.501-2.221-1.45-5.143 0.126-7.312l3.327-4.576c1.576-2.167 1.627-5.090 0.126-7.312l-0.006-0.003c-1.872-2.763-5.563-3.615-8.453-1.942M25.427 6.572c5.207 5.207 5.207 13.648 0 18.855s-13.648 5.207-18.855 0c-5.207-5.207-5.207-13.648 0-18.855s13.648-5.207 18.855 0z"></path>
</symbol>
<symbol id="icon-project_puzzle" viewBox="0 0 32 32">
<path stroke-linejoin="round" stroke-linecap="round" stroke-miterlimit="4" stroke-width="2.6667" d="M16 2.667l4.8 4.8c3.2-8.4 12.133 0.533 3.733 3.733l4.8 4.8-4.8 4.8c-3.2-8.4-12.133 0.533-3.733 3.733l-4.8 4.8-4.8-4.8c-3.2 8.4-12.133-0.533-3.733-3.733l-4.8-4.8 4.8-4.8c3.2 8.4 12.133-0.533 3.733-3.733l4.8-4.8z"></path>
</symbol>
<symbol id="icon-project_project" viewBox="0 0 32 32">
<path stroke-linejoin="miter" stroke-linecap="butt" stroke-miterlimit="4" stroke-width="2.6667" d="M4.396 6.978c0.309-1.282 1.299-2.272 2.558-2.576l0.024-0.005c0.507-0.124 1.090-0.196 1.689-0.196s1.182 0.071 1.739 0.206l-0.050-0.010c1.282 0.309 2.272 1.299 2.576 2.558l0.005 0.024c0.124 0.507 0.196 1.090 0.196 1.689s-0.071 1.182-0.206 1.739l0.010-0.050c-0.309 1.282-1.299 2.272-2.558 2.576l-0.024 0.005c-0.507 0.124-1.090 0.196-1.689 0.196s-1.182-0.071-1.739-0.206l0.050 0.010c-1.282-0.309-2.272-1.299-2.577-2.558l-0.005-0.024c-0.124-0.507-0.196-1.090-0.196-1.689s0.071-1.182 0.206-1.739l-0.010 0.050zM4.396 21.644c0.309-1.282 1.299-2.273 2.558-2.576l0.024-0.005c0.507-0.124 1.090-0.196 1.689-0.196s1.182 0.071 1.739 0.206l-0.050-0.010c1.282 0.309 2.272 1.299 2.576 2.558l0.005 0.024c0.124 0.507 0.195 1.090 0.195 1.689s-0.071 1.182-0.206 1.739l0.010-0.050c-0.309 1.282-1.299 2.273-2.558 2.576l-0.024 0.005c-0.507 0.124-1.090 0.196-1.689 0.196s-1.182-0.071-1.739-0.206l0.050 0.010c-1.282-0.309-2.272-1.299-2.577-2.558l-0.005-0.024c-0.124-0.507-0.195-1.090-0.195-1.689s0.071-1.182 0.206-1.739l-0.010 0.050zM19.063 6.978c0.309-1.282 1.299-2.272 2.558-2.576l0.024-0.005c0.507-0.124 1.090-0.195 1.689-0.195s1.182 0.071 1.739 0.206l-0.050-0.010c1.282 0.309 2.273 1.299 2.576 2.558l0.005 0.024c0.124 0.507 0.196 1.090 0.196 1.689s-0.071 1.182-0.206 1.739l0.010-0.050c-0.309 1.282-1.299 2.272-2.558 2.576l-0.024 0.005c-0.507 0.124-1.090 0.195-1.689 0.195s-1.182-0.071-1.739-0.206l0.050 0.010c-1.282-0.309-2.273-1.299-2.576-2.558l-0.005-0.024c-0.124-0.507-0.196-1.090-0.196-1.689s0.071-1.182 0.206-1.739l-0.010 0.050zM19.063 21.644c0.308-1.282 1.299-2.273 2.558-2.576l0.024-0.005c0.507-0.124 1.090-0.196 1.689-0.196s1.182 0.071 1.739 0.206l-0.050-0.010c1.28 0.3 2.281 1.301 2.581 2.581 0.124 0.507 0.196 1.090 0.196 1.689s-0.071 1.182-0.206 1.739l0.010-0.050c-0.308 1.282-1.299 2.273-2.558 2.576l-0.024 0.005c-0.507 0.124-1.090 0.196-1.689 0.196s-1.182-0.071-1.739-0.206l0.050 0.010c-1.282-0.308-2.273-1.299-2.576-2.558l-0.005-0.024c-0.124-0.507-0.196-1.090-0.196-1.689s0.071-1.182 0.206-1.739l-0.010 0.050z"></path>
</symbol>
<symbol id="icon-project_star" viewBox="0 0 32 32">
<path stroke-linejoin="round" stroke-linecap="round" stroke-miterlimit="4" stroke-width="2.6667" d="M16 2.667l2.683 6.974c0.375 0.978 0.564 1.467 0.857 1.877 0.258 0.364 0.578 0.684 0.942 0.942 0.409 0.293 0.9 0.48 1.877 0.857l6.974 2.683-6.974 2.683c-0.978 0.375-1.467 0.564-1.877 0.857-0.367 0.263-0.679 0.575-0.934 0.93l-0.008 0.012c-0.293 0.409-0.48 0.9-0.857 1.877l-2.683 6.974-2.683-6.974c-0.375-0.978-0.564-1.467-0.857-1.877-0.263-0.367-0.575-0.679-0.93-0.934l-0.012-0.008c-0.409-0.293-0.9-0.48-1.877-0.857l-6.974-2.683 6.974-2.683c0.978-0.375 1.467-0.564 1.877-0.857 0.367-0.263 0.679-0.575 0.934-0.93l0.008-0.012c0.293-0.409 0.48-0.9 0.857-1.877l2.683-6.974z"></path>
</symbol>

<symbol id="icon-trash" viewBox="0 0 32 32">
<path stroke-linejoin="round" stroke-linecap="round" stroke-miterlimit="4" stroke-width="2.6" d="M12 4h8"></path>
<path stroke-linejoin="round" stroke-linecap="round" stroke-miterlimit="4" stroke-width="2.6" d="M4 8h24"></path>
<path stroke-linejoin="round" stroke-linecap="round" stroke-miterlimit="4" stroke-width="2.6" d="M6.667 8l0.801 12.018c0.149 2.231 0.223 3.347 0.588 4.243 0.662 1.627 2.004 2.883 3.672 3.435 0.919 0.304 2.037 0.304 4.273 0.304v0c2.236 0 3.354 0 4.273-0.304 1.668-0.552 3.010-1.808 3.672-3.435 0.365-0.896 0.439-2.012 0.588-4.243l0.801-12.018"></path>
</symbol>
<symbol id="icon-x-close" viewBox="0 0 32 32">
<path stroke-linejoin="round" stroke-linecap="round" stroke-miterlimit="4" stroke-width="2.6667" d="M24 8l-16 16"></path>
<path stroke-linejoin="round" stroke-linecap="round" stroke-miterlimit="4" stroke-width="2.6667" d="M8 8l16 16"></path>
</symbol>
<symbol id="icon-logout" viewBox="0 0 32 32">
<path stroke-linejoin="round" stroke-linecap="round" stroke-miterlimit="4" stroke-width="1.5" d="M11.867 10.080c0.413-4.8 2.88-6.76 8.28-6.76h0.173c5.96 0 8.347 2.387 8.347 8.347v8.693c0 5.96-2.387 8.347-8.347 8.347h-0.173c-5.36 0-7.827-1.933-8.267-6.653"></path>
<path stroke-linejoin="round" stroke-linecap="round" stroke-miterlimit="4" stroke-width="1.5" d="M2.667 16h17.173"></path>
<path stroke-linejoin="round" stroke-linecap="round" stroke-miterlimit="4" stroke-width="1.5" d="M16.867 11.533l4.467 4.467-4.467 4.467"></path>
</symbol>
<symbol id="icon-chevron-down" viewBox="0 0 30 32">
<path stroke-linejoin="round" stroke-linecap="round" stroke-miterlimit="4" stroke-width="2.8235" d="M7.529 12.235l7.529 7.529 7.529-7.529"></path>
</symbol>

<symbol id="icon-logo-small" viewBox="0 0 24 32">
<path d="M6.663 30.054c0.489-2.543 0.905-5.22 1.494-7.897 0.29-1.401-0.063-1.999-1.63-1.892s-3.313 0.053-4.979 0c-1.666-0.054-1.965-0.892-1.005-2.088 4.726-5.836 9.506-11.6 14.268-17.347 0.534-0.651 1.15-1.115 2.028-0.625s0.697 1.098 0.552 1.829c-0.525 2.677-0.96 5.354-1.539 7.978-0.299 1.356 0.091 1.838 1.503 1.785 1.417-0.071 2.837-0.071 4.255 0 0.806 0 1.865-0.419 2.281 0.678s-0.462 1.562-0.905 2.213c-1.811 2.231-3.645 4.459-5.504 6.684-2.722 3.248-5.423 6.484-8.102 9.709-0.525 0.633-1.114 1.142-2.010 0.821s-0.706-1.080-0.706-1.847z"></path>
</symbol>
</defs>
</svg>